<svg xmlns="http://www.w3.org/2000/svg" width="29" height="26" viewBox="0 0 29 26" fill="none">
<path d="M28.446 2.63777L23.789 2.75507C22.8335 1.31186 21.6189 0.758738 21.6189 0.758738C20.8945 0.434827 20.1157 0.26217 19.3269 0.250653C18.5381 0.239134 17.7549 0.388979 17.022 0.691612C16.2892 0.994244 15.6211 1.44372 15.056 2.01432C14.491 2.58491 14.04 3.26542 13.729 4.0169L12.5443 6.87125L-0.0084826 0.804571C0.781191 6.87074 4.23188 11.838 9.19836 14.9329L4.74574 25.2094C4.74574 25.2094 17.634 23.0833 22.3794 14.6515C24.9067 10.156 25.0637 8.0776 24.8777 6.02901L28.446 2.63777ZM21.5242 5.84771C21.2121 6.59987 20.3605 6.95151 19.6349 6.62791C19.4625 6.55125 19.3064 6.4401 19.1756 6.30083C19.0447 6.16156 18.9416 5.99689 18.8721 5.81626C18.8027 5.63563 18.7683 5.44259 18.771 5.24817C18.7736 5.05375 18.8133 4.86179 18.8876 4.68326C19.1997 3.9311 20.0513 3.57946 20.7769 3.90306C21.5025 4.22666 21.8364 5.09555 21.5242 5.84771Z" fill="#F27070"/>
</svg>