<svg width="40" height="41" viewBox="0 0 40 41" fill="none" xmlns="http://www.w3.org/2000/svg">
<g id="Group 1">
<path id="Vector" d="M19.7188 24.2439C21.8996 24.2439 23.6674 22.476 23.6674 20.2953C23.6674 18.1145 21.8996 16.3466 19.7188 16.3466C17.538 16.3466 15.7702 18.1145 15.7702 20.2953C15.7702 22.476 17.538 24.2439 19.7188 24.2439Z" fill="#1A1A1A"/>
<path id="Vector_2" d="M37.8109 24.2365C38.5813 23.4784 39.1137 22.5119 39.3428 21.4555C39.5718 20.3991 39.4875 19.2989 39.1002 18.2898C38.7129 17.2807 38.0394 16.4065 37.1625 15.7747C36.2855 15.1428 35.2432 14.7806 34.1633 14.7327C34.0819 14.7291 34.0032 14.7024 33.9364 14.6556C33.8697 14.6088 33.8177 14.5439 33.7866 14.4686C33.7557 14.3931 33.7471 14.3103 33.7616 14.23C33.7762 14.1497 33.8134 14.0752 33.8688 14.0153C34.5918 13.216 35.0678 12.2245 35.2393 11.1605C35.4109 10.0965 35.2706 9.00561 34.8355 8.01961C34.4004 7.03361 33.6891 6.19471 32.7875 5.60428C31.8859 5.01385 30.8326 4.69716 29.7549 4.69247H29.7343C28.3513 4.69224 27.0185 5.21096 25.9996 6.14606C25.9396 6.20166 25.865 6.23895 25.7845 6.25352C25.7041 6.2681 25.6211 6.25936 25.5455 6.22832C25.4702 6.19708 25.4053 6.14507 25.3584 6.07837C25.3115 6.01166 25.2845 5.933 25.2806 5.85156C25.2177 4.41856 24.6043 3.06511 23.568 2.07333C22.5318 1.08154 21.1528 0.527954 19.7184 0.527954C18.284 0.527954 16.905 1.08154 15.8687 2.07333C14.8325 3.06511 14.219 4.41856 14.1562 5.85156C14.1526 5.93299 14.1259 6.01172 14.0791 6.07846C14.0323 6.14521 13.9674 6.19721 13.8921 6.22832C13.8165 6.25936 13.7335 6.2681 13.653 6.25352C13.5726 6.23895 13.498 6.20166 13.438 6.14606C12.4185 5.20945 11.0844 4.69006 9.69999 4.69083H9.68271C8.60615 4.69836 7.55469 5.0168 6.65485 5.60785C5.75501 6.19889 5.04511 7.03735 4.61058 8.02235C4.17605 9.00735 4.03538 10.0969 4.20552 11.16C4.37565 12.2231 4.84933 13.2143 5.56957 14.0145C5.62501 14.0744 5.6622 14.1489 5.67678 14.2291C5.69135 14.3094 5.68269 14.3922 5.65183 14.4678C5.62072 14.5431 5.56872 14.608 5.50197 14.6548C5.43523 14.7016 5.3565 14.7283 5.27507 14.7318C3.85087 14.8074 2.5099 15.4263 1.52848 16.4611C0.547073 17.496 0 18.8678 0 20.294C0 21.7202 0.547073 23.0921 1.52848 24.1269C2.5099 25.1618 3.85087 25.7807 5.27507 25.8563C5.35661 25.8602 5.43533 25.8873 5.50204 25.9344C5.56876 25.9814 5.62071 26.0465 5.65183 26.122C5.68277 26.1976 5.69146 26.2806 5.67688 26.361C5.66231 26.4414 5.62508 26.516 5.56957 26.5761C4.84429 27.373 4.36639 28.3636 4.19408 29.4273C4.02177 30.4909 4.16248 31.5818 4.59908 32.5669C5.03568 33.552 5.74932 34.389 6.65309 34.9757C7.55686 35.5625 8.61175 35.8738 9.68929 35.8718H9.70986C11.0867 35.8756 12.4157 35.3668 13.438 34.4445C13.4979 34.3891 13.5724 34.3519 13.6527 34.3373C13.733 34.3227 13.8157 34.3314 13.8913 34.3622C13.9666 34.3934 14.0315 34.4453 14.0783 34.5121C14.1251 34.5788 14.1518 34.6576 14.1553 34.739C14.2309 36.1632 14.8498 37.5042 15.8847 38.4856C16.9195 39.467 18.2914 40.0141 19.7176 40.0141C21.1438 40.0141 22.5156 39.467 23.5505 38.4856C24.5853 37.5042 25.2042 36.1632 25.2798 34.739C25.2837 34.6576 25.3106 34.5789 25.3575 34.5122C25.4044 34.4455 25.4693 34.3935 25.5446 34.3622C25.6202 34.3314 25.703 34.3227 25.7833 34.3373C25.8636 34.3519 25.938 34.3891 25.9979 34.4445C27.0187 35.3683 28.3468 35.8791 29.7236 35.8775H29.7442C30.8227 35.8818 31.879 35.5718 32.7842 34.9854C33.6894 34.399 34.4041 33.5616 34.8411 32.5756C35.2781 31.5896 35.4184 30.4977 35.2448 29.4332C35.0713 28.3688 34.5914 27.378 33.8639 26.5818C33.8084 26.5218 33.7712 26.4472 33.7566 26.3668C33.742 26.2863 33.7507 26.2034 33.7816 26.1277C33.8129 26.0524 33.8649 25.9875 33.9316 25.9406C33.9983 25.8937 34.077 25.8667 34.1584 25.8628C35.5359 25.7945 36.8384 25.2146 37.8109 24.2365ZM19.7188 26.8763C18.4172 26.8763 17.1448 26.4903 16.0626 25.7672C14.9803 25.0441 14.1368 24.0163 13.6387 22.8137C13.1406 21.6112 13.0103 20.288 13.2642 19.0114C13.5181 17.7348 14.1449 16.5622 15.0653 15.6418C15.9857 14.7214 17.1583 14.0946 18.4349 13.8407C19.7115 13.5868 21.0347 13.7171 22.2372 14.2152C23.4398 14.7133 24.4676 15.5568 25.1907 16.6391C25.9139 17.7213 26.2998 18.9937 26.2998 20.2953C26.2979 22.0401 25.6039 23.7128 24.3701 24.9466C23.1364 26.1804 21.4636 26.8744 19.7188 26.8763Z" fill="#DC598F"/>
</g>
</svg>
